<svg width="62" height="62" viewBox="0 0 62 62" fill="none" xmlns="http://www.w3.org/2000/svg">
<circle cx="31" cy="31" r="31" fill="#26B6BD"/>
<path d="M31.2629 9.0988C31.1178 8.95372 30.8826 8.95372 30.7375 9.0988L24.6118 15.2245H15.5963C15.3911 15.2245 15.2248 15.3909 15.2248 15.596V24.6116L9.09904 30.7373C8.95396 30.8824 8.95396 31.1176 9.09904 31.2627L15.2248 37.3884V46.404C15.2248 46.6091 15.3911 46.7755 15.5963 46.7755H24.6118L30.7375 52.9012C30.8826 53.0463 31.1178 53.0463 31.2629 52.9012L37.3886 46.7755H46.4042C46.6094 46.7755 46.7757 46.6091 46.7757 46.404V37.3884L52.9014 31.2627C53.0465 31.1176 53.0465 30.8824 52.9014 30.7373L46.7757 24.6116V15.596C46.7757 15.3909 46.6094 15.2245 46.4042 15.2245H37.3886L31.2629 9.0988Z" fill="white"/>
<path d="M31.2727 15.8751C31.1223 15.7247 30.8785 15.7247 30.7281 15.8751L26.5624 20.0409H20.4263C20.2136 20.0409 20.0412 20.2132 20.0412 20.4259V26.562L15.8755 30.7278C15.7251 30.8781 15.7251 31.1219 15.8755 31.2723L20.0412 35.438V41.5742C20.0412 41.7868 20.2136 41.9592 20.4263 41.9592H26.5624L30.7281 46.1249C30.8785 46.2753 31.1223 46.2753 31.2727 46.1249L35.4384 41.9592H41.5745C41.7872 41.9592 41.9596 41.7868 41.9596 41.5742V35.438L46.1253 31.2723C46.2757 31.1219 46.2757 30.8781 46.1253 30.7278L41.9596 26.562V20.4259C41.9596 20.2132 41.7872 20.0409 41.5745 20.0409H35.4384L31.2727 15.8751Z" fill="#26B6BD"/>
</svg>
