<svg width="430" height="359" viewBox="0 0 430 359" fill="none" xmlns="http://www.w3.org/2000/svg">
<g clip-path="url(#clip0)">
<path d="M24.2094 95.5181C23.5808 95.6456 23.0285 96.0171 22.6735 96.5513C22.3185 97.0854 22.1899 97.7385 22.3158 98.3674L73.4455 352.101C73.5729 352.73 73.9445 353.282 74.4786 353.637C75.0127 353.992 75.6659 354.121 76.2948 353.995L280.711 312.803C281.34 312.675 281.892 312.304 282.247 311.77C282.602 311.236 282.731 310.582 282.605 309.954L231.475 56.2198C231.348 55.5913 230.976 55.039 230.442 54.684C229.908 54.329 229.255 54.2004 228.626 54.3264L24.2094 95.5181Z" fill="#E6E6E6"/>
<path d="M33.3268 101.578C32.6983 101.705 32.1459 102.076 31.7909 102.611C31.4359 103.145 31.3073 103.798 31.4333 104.427L79.5047 342.984C79.6321 343.612 80.0037 344.165 80.5378 344.52C81.072 344.875 81.7251 345.003 82.354 344.877L271.593 306.744C272.222 306.616 272.774 306.245 273.129 305.711C273.484 305.177 273.613 304.523 273.487 303.895L225.416 65.3375C225.288 64.709 224.917 64.1566 224.382 63.8016C223.848 63.4467 223.195 63.3181 222.566 63.444L33.3268 101.578Z" fill="white"/>
<path d="M218.464 171.674L79.0245 199.773C78.5573 199.867 78.076 199.868 77.6082 199.777C77.1404 199.685 76.6953 199.502 76.2982 199.238C75.9011 198.975 75.5599 198.635 75.294 198.24C75.0282 197.844 74.8428 197.4 74.7487 196.933C74.6545 196.465 74.6534 195.984 74.7453 195.516C74.8371 195.049 75.0203 194.604 75.2843 194.207C75.5482 193.81 75.8878 193.469 76.2836 193.203C76.6794 192.937 77.1236 192.752 77.591 192.658L217.031 164.56C217.974 164.371 218.954 164.563 219.755 165.096C220.556 165.629 221.113 166.458 221.303 167.401C221.493 168.344 221.3 169.324 220.768 170.125C220.236 170.926 219.407 171.484 218.464 171.674Z" fill="#E6E6E6"/>
<path d="M206.306 105.154L113.798 123.795C112.494 124.058 111.117 122.678 110.721 120.714C110.325 118.749 111.061 116.944 112.364 116.681L204.873 98.0399C206.176 97.7772 207.553 99.1569 207.949 101.121C208.345 103.086 207.61 104.891 206.306 105.154Z" fill="#E6E6E6"/>
<path d="M210.415 125.547L117.907 144.189C116.604 144.451 115.226 143.072 114.83 141.107C114.434 139.143 115.17 137.337 116.473 137.075L208.982 118.433C210.285 118.171 211.663 119.55 212.059 121.515C212.454 123.479 211.719 125.285 210.415 125.547Z" fill="#E6E6E6"/>
<path d="M223.1 194.676L83.6603 222.774C82.7171 222.964 81.7373 222.771 80.9362 222.239C80.1351 221.706 79.5784 220.877 79.3883 219.934C79.1983 218.991 79.3906 218.011 79.9228 217.21C80.4551 216.408 81.2838 215.851 82.2268 215.66L221.666 187.562C222.61 187.373 223.589 187.565 224.391 188.098C225.192 188.631 225.748 189.46 225.938 190.403C226.128 191.346 225.936 192.326 225.404 193.127C224.872 193.928 224.043 194.486 223.1 194.676Z" fill="#E6E6E6"/>
<path d="M227.735 217.678L88.295 245.777C87.8278 245.871 87.3465 245.873 86.8787 245.781C86.4109 245.689 85.9658 245.506 85.5687 245.243C85.1716 244.979 84.8304 244.64 84.5645 244.244C84.2987 243.848 84.1134 243.404 84.0192 242.937C83.925 242.47 83.9239 241.988 84.0158 241.521C84.1077 241.053 84.2908 240.608 84.5548 240.211C84.8187 239.814 85.1583 239.473 85.5541 239.207C85.9499 238.942 86.3942 238.757 86.8615 238.663L226.301 210.564C226.768 210.47 227.25 210.468 227.717 210.56C228.185 210.652 228.63 210.835 229.027 211.098C229.425 211.362 229.766 211.701 230.032 212.097C230.297 212.493 230.483 212.937 230.577 213.404C230.671 213.871 230.672 214.353 230.58 214.82C230.488 215.288 230.305 215.733 230.041 216.13C229.777 216.527 229.438 216.868 229.042 217.134C228.646 217.399 228.202 217.584 227.735 217.678Z" fill="#E6E6E6"/>
<path d="M232.369 240.68L92.9298 268.779C92.4627 268.873 91.9816 268.874 91.514 268.782C91.0464 268.69 90.6015 268.507 90.2046 268.244C89.8077 267.98 89.4667 267.64 89.201 267.245C88.9353 266.849 88.75 266.405 88.6559 265.938C88.5618 265.471 88.5606 264.99 88.6524 264.523C88.7442 264.055 88.9272 263.61 89.1909 263.213C89.4547 262.816 89.794 262.475 90.1896 262.21C90.5851 261.944 91.0291 261.759 91.4963 261.664L230.936 233.566C231.879 233.377 232.859 233.569 233.66 234.102C234.461 234.635 235.018 235.464 235.208 236.407C235.398 237.35 235.206 238.33 234.673 239.131C234.141 239.932 233.312 240.49 232.369 240.68Z" fill="#E6E6E6"/>
<path d="M237.005 263.682L97.5656 291.781C96.6224 291.97 95.6426 291.777 94.8415 291.245C94.0404 290.712 93.4836 289.883 93.2936 288.94C93.1036 287.997 93.2958 287.017 93.8281 286.216C94.3604 285.414 95.1891 284.857 96.132 284.667L235.572 256.568C236.515 256.379 237.495 256.571 238.296 257.104C239.097 257.637 239.654 258.466 239.844 259.409C240.034 260.352 239.841 261.332 239.309 262.133C238.777 262.934 237.948 263.492 237.005 263.682Z" fill="#E6E6E6"/>
<path d="M241.64 286.684L102.2 314.783C101.733 314.877 101.252 314.878 100.785 314.786C100.317 314.694 99.872 314.511 99.4751 314.248C98.6736 313.715 98.1165 312.886 97.9264 311.942C97.7363 310.999 97.9288 310.019 98.4614 309.217C98.9941 308.416 99.8234 307.859 100.767 307.669L240.206 279.57C240.674 279.476 241.155 279.474 241.623 279.566C242.091 279.658 242.536 279.841 242.933 280.104C243.33 280.368 243.671 280.707 243.937 281.103C244.203 281.499 244.388 281.943 244.482 282.41C244.576 282.877 244.578 283.359 244.486 283.826C244.394 284.294 244.211 284.739 243.947 285.136C243.683 285.533 243.343 285.874 242.947 286.14C242.552 286.405 242.107 286.59 241.64 286.684Z" fill="#E6E6E6"/>
<path d="M86.0502 156.037C96.392 153.928 103.066 143.835 100.958 133.494C98.8489 123.152 88.7558 116.479 78.414 118.587C68.0722 120.696 61.3979 130.789 63.5066 141.13C65.6152 151.472 75.7084 158.146 86.0502 156.037Z" fill="#3F3D56"/>
<path d="M188.465 109.909L179.431 65.6062C178.179 58.9716 174.354 53.1011 168.792 49.2747C163.229 45.4482 156.379 43.9761 149.735 45.1793C143.091 46.3825 137.192 50.1635 133.324 55.6978C129.457 61.2321 127.934 68.071 129.088 74.7234L134.604 73.5985C133.77 68.5074 134.938 63.291 137.864 59.0416C140.789 54.7921 145.245 51.8392 150.299 50.801C150.394 50.7815 150.491 50.7626 150.586 50.7446C155.794 49.7695 161.175 50.9012 165.548 53.8912C169.921 56.8811 172.929 61.4848 173.909 66.6906L182.956 111.057C182.98 111.17 183.003 111.282 183.023 111.385C183.68 114.843 182.951 118.421 180.992 121.345C179.032 124.27 176.001 126.306 172.553 127.014C172.499 127.025 172.445 127.035 172.392 127.046C168.9 127.708 165.289 126.957 162.351 124.957C159.413 122.958 157.389 119.874 156.724 116.383L147.782 72.3724C147.457 70.6369 147.825 68.843 148.808 67.3763C149.792 65.9096 151.311 64.8872 153.04 64.5287C154.769 64.1703 156.57 64.5044 158.055 65.4593C159.54 66.4142 160.592 67.9137 160.983 69.6354L167.835 103.239C167.984 103.971 168.418 104.613 169.04 105.024C169.663 105.436 170.423 105.583 171.154 105.434C171.886 105.285 172.528 104.852 172.939 104.229C173.351 103.607 173.498 102.846 173.349 102.115L166.488 68.4675C165.788 65.2933 163.867 62.522 161.141 60.753C158.414 58.9839 155.1 58.3593 151.916 59.0142C148.732 59.6692 145.934 61.551 144.127 64.2527C142.32 66.9544 141.649 70.2588 142.259 73.4514L151.203 117.472C152.156 122.422 155.033 126.791 159.204 129.622C163.374 132.453 168.497 133.514 173.449 132.573C173.526 132.558 173.602 132.543 173.679 132.528C178.578 131.521 182.884 128.627 185.667 124.471C188.449 120.315 189.484 115.231 188.549 110.318C188.52 110.174 188.491 110.03 188.465 109.909Z" fill="currentColor"/>
</g>
<defs>
<clipPath id="clip0">
<rect width="378.908" height="289.039" fill="white" transform="translate(0 75.7036) rotate(-11.5249)"/>
</clipPath>
</defs>
</svg>
