<?xml version="1.0" encoding="UTF-8" standalone="no"?>
<!DOCTYPE svg PUBLIC "-//W3C//DTD SVG 1.1//EN" "http://www.w3.org/Graphics/SVG/1.1/DTD/svg11.dtd">
<svg width="100%" height="100%" viewBox="0 0 1033 536" version="1.1" xmlns="http://www.w3.org/2000/svg" xmlns:xlink="http://www.w3.org/1999/xlink" xml:space="preserve" xmlns:serif="http://www.serif.com/" style="fill-rule:evenodd;clip-rule:evenodd;stroke-linejoin:round;stroke-miterlimit:2;">
    <g transform="matrix(1,0,0,1,-1283.91,-1790.93)">
        <g id="Revisi-Finalll" serif:id="Revisi Finalll" transform="matrix(0.955742,0,0,0.495489,1283.91,1790.93)">
            <rect x="0" y="0" width="1080" height="1080" style="fill:none;"/>
            <g transform="matrix(1.0913,0,0,2.01821,-82.5522,-1048.8)">
                <path d="M1033.97,1032.97C1033.97,1027.08 1029.38,1022.29 1023.73,1022.29L94.223,1022.29C88.571,1022.29 83.982,1027.08 83.982,1032.97C83.982,1038.87 88.571,1043.65 94.223,1043.65L1023.73,1043.65C1029.38,1043.65 1033.97,1038.87 1033.97,1032.97Z" style="fill:rgb(188,188,188);"/>
            </g>
            <g transform="matrix(1.04631,0,0,2.01821,-33.3046,-956.333)">
                <path d="M350.07,710.552L334.13,710.552C334.13,710.552 256.291,783.171 263.14,826.446C269.989,869.721 328.675,908.092 360.197,908.092L720.172,912.373C720.172,912.373 702.001,809.33 638.178,799.601L638.178,780.143C638.178,780.143 649.336,763.637 640.968,748.294C632.599,732.952 614.468,734.546 591.753,740.922C569.038,747.298 532.376,753.475 510.857,749.091C489.338,744.708 452.875,745.306 445.901,755.667C438.928,766.028 444.108,777.385 448.691,782.167C448.691,782.167 447.495,833.175 479.774,838.555L479.774,874.221C479.774,874.221 410.833,897.135 362.814,872.627C314.794,848.119 338.073,748.021 350.07,710.552Z" style="fill:rgb(134,142,150);"/>
            </g>
            <g transform="matrix(1.13197,0,0,2.18344,-48.755,-1117.3)">
                <circle cx="256.416" cy="917.113" r="66.547" style="fill:rgb(52,58,64);"/>
            </g>
            <g transform="matrix(0.774406,0,0,1.49374,42.9301,-484.763)">
                <circle cx="256.416" cy="917.113" r="66.547" style="fill:rgb(134,142,150);"/>
            </g>
            <g transform="matrix(0.591509,0,0,1.14096,89.8278,-161.217)">
                <circle cx="256.416" cy="917.113" r="66.547" style="fill:rgb(207,212,218);"/>
            </g>
            <g transform="matrix(1.13197,0,0,2.18344,325.32,-1109.22)">
                <circle cx="256.416" cy="917.113" r="66.547" style="fill:rgb(52,58,64);"/>
            </g>
            <g transform="matrix(0.774406,0,0,1.49374,417.006,-476.69)">
                <circle cx="256.416" cy="917.113" r="66.547" style="fill:rgb(134,142,150);"/>
            </g>
            <g transform="matrix(0.591509,0,0,1.14096,463.903,-153.144)">
                <circle cx="256.416" cy="917.113" r="66.547" style="fill:rgb(207,212,218);"/>
            </g>
            <g transform="matrix(0.958449,0,0,1.84874,-1.10187,-814.419)">
                <path d="M274.363,765.477C269.261,760.91 266.066,754.272 266.066,746.894C266.066,733.065 277.294,721.837 291.123,721.837C296.278,721.837 301.071,723.396 305.053,726.072C295.07,737.317 283.818,751.09 274.363,765.477Z" style="fill: #26B6BD;"/>
            </g>
            <g transform="matrix(1.04631,0,0,2.01821,-32.0831,-954.763)">
                <path d="M359.469,616.583C359.205,615.22 359.067,613.812 359.067,612.372C359.067,602.522 365.532,594.17 374.449,591.337L374.449,633.407C368.626,631.557 363.849,627.354 361.235,621.918L338.106,671.829L334.759,671.032L359.469,616.583Z" style="fill: #26B6BD;"/>
            </g>
            <g transform="matrix(1.06224,0,0,2.04894,-37.5676,-975.724)">
                <path d="M340.679,705.86L329.9,705.86L329.885,705.822L340.664,705.822L340.679,705.86Z" style="fill:rgb(99,107,162);"/>
            </g>
            <g transform="matrix(1.06224,0,0,2.04894,-37.5676,-975.724)">
                <path d="M354.894,705.86L329.9,705.86L327.604,699.994L315.618,699.994C315.618,699.994 295.214,702.417 292.281,681.759C289.348,661.1 307.393,658.167 318.104,658.678C318.104,658.678 325.883,658.678 332.769,666.329L359.166,666.329L359.166,676.658L387.22,676.658C387.22,676.658 396.912,676.403 396.657,684.947C396.657,684.947 397.422,693.108 386.583,693.108L359.421,693.108L354.894,705.86Z" style="fill:rgb(134,142,150);"/>
            </g>
            <g transform="matrix(0.958726,0.0868867,-0.0499164,2.04927,47.9846,-1020.26)">
                <path d="M444.989,844.664C444.263,846.61 442.605,848.244 440.317,849.034L425.297,854.222C421.679,855.472 417.673,854.202 415.661,851.37C412.61,854.508 406.704,859.253 399.062,859.324C387.653,859.43 373.642,861.234 380.648,872.91C387.653,884.587 398.586,882.357 415.039,878.324C431.492,874.29 432.066,888.313 454.813,876.26C454.813,876.26 467.72,866.07 447.934,846.539C447.934,846.539 446.956,845.581 444.989,844.664Z" style="fill:rgb(52,58,64);"/>
            </g>
            <g transform="matrix(1.04515,0.0947194,-0.0491057,2.01599,4.83014,-992.562)">
                <path d="M421.431,849.711L451.394,841.958C449.11,833.346 443.052,819.723 442.336,802.537C441.341,778.654 438.106,763.479 435.121,755.02C435.121,755.02 485.514,752.499 500.441,749.016C515.367,745.533 532.284,744.041 531.538,719.411C531.538,719.411 533.051,711.06 501.321,707.772C501.321,707.772 433.404,698.605 400.814,725.952C400.814,725.952 387.38,738.621 392.853,759.021C397.452,776.163 413.997,831.249 421.431,849.711Z" style="fill:rgb(134,142,150);"/>
            </g>
            <g transform="matrix(0.956198,0.0866576,-0.0491057,2.01599,41.297,-1002.87)">
                <path d="M428.735,847.475C430.61,846.823 451.898,834.758 455.683,841.932C459.468,849.106 451.316,854.5 436.806,856.653C422.295,858.807 420.338,858.236 419.116,850.084C419.116,850.084 426.86,848.127 428.735,847.475Z" style="fill:rgb(52,58,64);"/>
            </g>
            <g transform="matrix(1.04631,0,0,2.01821,-32.0831,-954.763)">
                <path d="M190.101,883.008C190.101,883.008 188.544,847.205 240.303,832.806C292.061,818.407 353.16,870.165 353.16,928.539C353.16,928.539 328.471,929.598 292.606,905.439C256.741,881.28 209.637,886.728 190.101,883.008Z" style="fill: #26B6BD;"/>
            </g>
            <g transform="matrix(1.04631,0,0,2.01821,-33.1294,-952.744)">
                <path d="M708.176,923.576L554.457,925.132C554.457,925.132 536.399,925.365 524.125,912.454C511.851,899.542 490.801,851.309 499.829,823.912C508.858,796.515 559.604,783.439 613.776,794.335C667.947,805.232 703.262,877.452 708.176,923.576Z" style="fill: #26B6BD;"/>
            </g>
            <g transform="matrix(1.04631,0,0,2.01821,-32.0831,-954.763)">
                <path d="M319.349,700.264L315.181,700.264C315.181,700.264 294.467,702.724 291.489,681.751C288.512,660.779 306.83,657.801 317.705,658.319C317.705,658.319 318.317,658.319 319.349,658.497L319.349,700.264Z" style="fill:rgb(134,142,150);"/>
            </g>
            <g transform="matrix(1.07576,-0.0650522,0.0337252,2.07502,-130.495,-849.756)">
                <path d="M503.977,728.096C506.528,729.784 509.588,730.763 512.874,730.763L680.59,730.763C683.384,730.763 686.015,730.055 688.312,728.809C689.54,727.036 699.062,712.349 691.877,698.134C684.213,682.972 666.547,683.968 644.281,689.472C622.016,694.975 586.205,699.86 565.429,694.945C544.653,690.031 509.205,689.501 502.113,699.356C495.021,709.211 499.709,720.404 504.016,725.19C504.016,725.19 503.958,726.256 503.977,728.096Z" style="fill: #26B6BD;"/>
            </g>
            <g transform="matrix(0.570785,0,0,1.38067,270.417,-447.693)">
                <path d="M670.523,747.608C670.523,746.398 669.29,745.416 667.773,745.416L662.274,745.416C660.756,745.416 659.524,746.398 659.524,747.608L659.524,808.736C659.524,809.947 660.756,810.929 662.274,810.929L667.773,810.929C669.29,810.929 670.523,809.947 670.523,808.736L670.523,747.608Z" style="fill: #26B6BD;"/>
            </g>
            <g transform="matrix(4.63195e-17,-1.45912,0.321491,3.79715e-17,388.416,1612.32)">
                <path d="M670.523,751.885C670.523,748.315 669.29,745.416 667.773,745.416L662.274,745.416C660.756,745.416 659.524,748.315 659.524,751.885L659.524,804.459C659.524,808.03 660.756,810.929 662.274,810.929L667.773,810.929C669.29,810.929 670.523,808.03 670.523,804.459L670.523,751.885Z" style="fill: #26B6BD;"/>
            </g>
            <g transform="matrix(0.17714,0,0,2.86559,257.628,-1476.6)">
                <path d="M230.708,645.755L241.086,645.755C241.086,645.755 253.366,645.755 270.88,646.503L270.88,675.297L230.708,675.297L230.708,645.755Z" style="fill: #26B6BD;"/>
            </g>
            <g transform="matrix(1.04631,0,0,2.01821,-31.8301,-1000.15)">
                <path d="M361.615,699.063L387.632,699.063C387.632,699.063 397.471,698.804 397.212,707.478C397.212,707.478 397.989,715.763 386.984,715.763L363.048,715.763C361.767,712.327 361.089,708.608 361.089,704.733C361.089,702.798 361.258,700.902 361.615,699.063Z" style="fill: #26B6BD;"/>
            </g>
            <g transform="matrix(1.04631,0,0,2.01821,-33.2577,-997.782)">
                <path d="M899.404,918.074C895.952,904.841 893.241,896.275 893.241,896.275C941.683,932.792 943.641,1000.48 943.641,1000.48L913.804,1000.77C913.245,989.872 911.845,978.425 910.002,967.272C917.494,966.585 924.35,968.419 924.35,968.419C921.964,964.35 915.519,961.93 908.849,960.55L907.963,955.643L907.184,951.739C913.974,951.431 919.812,952.993 919.812,952.993C917.615,949.245 911.974,946.896 905.89,945.45L904.197,937.894C910.519,937.79 915.752,939.19 915.752,939.19C913.678,935.652 908.537,933.361 902.85,931.887L902.616,930.842L900.986,924.362C907.669,924.102 913.364,925.625 913.364,925.625C911.162,921.87 905.503,919.519 899.404,918.074Z" style="fill:rgb(87,198,121);"/>
            </g>
            <g transform="matrix(1.04631,0,0,2.01821,-26.4274,-997.782)">
                <path d="M1009,959.618C1005.26,973.717 1002.78,987.813 1002.57,1000.77L965.23,1000.77C965.23,1000.77 972.968,909.625 1051.38,859.409C1051.38,859.409 1041.55,876.346 1030.73,900.362C1024.24,900.655 1018.35,901.996 1015.09,905.281C1015.09,905.281 1020.88,905.221 1027.85,906.833L1027.34,907.989L1023.75,916.586C1017.11,916.794 1011.07,918.123 1007.75,921.467C1007.75,921.467 1013.89,921.404 1021.13,923.165L1018.44,930.144L1017.62,932.466C1009.71,932.353 1002.13,933.511 998.255,937.415C998.255,937.415 1006.38,937.332 1014.96,940.038L1014.32,941.87L1011.66,950.41C1002.21,949.827 992.271,950.569 987.637,955.238C987.637,955.238 998.959,955.122 1009,959.618Z" style="fill:rgb(79,152,101);"/>
            </g>
            <g transform="matrix(-1.0554,0,0,2.34254,2010.98,-1322.36)">
                <path d="M1034.69,891.803C1043.83,872.42 1051.38,859.409 1051.38,859.409C972.968,909.625 965.23,1000.77 965.23,1000.77L1002.57,1000.77C1002.83,984.725 1006.57,966.934 1011.93,949.547C1000.94,946.079 989.33,946.594 989.33,946.594C994.085,942.075 1004.47,940.875 1014.63,940.966L1018.26,930.637C1008.89,928.55 1000.34,928.929 1000.34,928.929C1004.38,925.091 1012.48,923.647 1021.06,923.361L1022.82,918.799L1024.76,914.163C1016.79,912.83 1010.2,913.123 1010.2,913.123C1013.69,909.806 1020.21,908.277 1027.45,907.738L1031.71,898.147C1023.97,896.891 1017.62,897.172 1017.62,897.172C1021.09,893.885 1027.52,892.354 1034.69,891.803Z" style="fill:rgb(79,152,101);"/>
            </g>
            <g transform="matrix(1.04631,0,0,2.05818,-32.0831,-1041.37)">
                <path d="M982.258,949.107C973.68,948.17 966.19,950.599 966.19,950.599C969.287,944.063 976.371,940.149 984.036,937.835L986.113,925.533L987.016,920.686C979.607,920.432 973.61,922.376 973.61,922.376C976.363,916.568 982.263,912.83 988.924,910.453L989.055,909.751L992.032,895.414C985.39,895.457 980.249,897.123 980.249,897.123C982.821,891.696 988.141,888.077 994.263,885.687L996.087,877.884L998.058,870.492C990.674,870.264 984.71,872.197 984.71,872.197C987.588,866.125 993.907,862.316 1000.94,859.965C1006.51,840.931 1013.08,824.061 1020.7,812.579C1020.7,812.579 959.222,852.641 951.665,1000.75L975.402,1002.52C975.402,1002.52 977.573,979.618 982.258,949.107Z" style="fill:rgb(87,198,121);"/>
            </g>
            <g transform="matrix(0.959784,0,0,2.05153,10.35,-982.297)">
                <path d="M444.989,844.664C444.263,846.61 442.605,848.244 440.317,849.034L425.297,854.222C421.679,855.472 417.673,854.202 415.661,851.37C412.61,854.508 406.704,859.253 399.062,859.324C387.653,859.43 373.642,861.234 380.648,872.91C387.653,884.587 398.586,882.357 415.039,878.324C431.492,874.29 432.066,888.313 454.813,876.26C454.813,876.26 467.72,866.07 447.934,846.539C447.934,846.539 446.956,845.581 444.989,844.664Z" style="fill:rgb(139,139,139);"/>
            </g>
            <g transform="matrix(0.959784,0,0,2.05153,10.35,-982.297)">
                <path d="M444.989,844.664C444.263,846.61 442.605,848.244 440.317,849.034L425.297,854.222C421.679,855.472 417.673,854.202 415.661,851.37C412.61,854.508 406.704,859.253 399.062,859.324C387.653,859.43 373.642,861.234 380.648,872.91C387.653,884.587 398.586,882.357 415.039,878.324C431.492,874.29 432.066,888.313 454.813,876.26C454.813,876.26 467.72,866.07 447.934,846.539C447.934,846.539 446.956,845.581 444.989,844.664Z" style="fill:rgb(134,142,150);"/>
            </g>
            <g transform="matrix(0.553772,0.05116,-0.026523,1.06817,531.423,-102.791)">
                <path d="M894.602,1009.95C894.602,1009.95 900.793,986.634 921.634,987.253C942.475,987.872 945.364,998.396 959.19,1007.06L894.602,1009.95Z" style="fill:rgb(160,154,154);"/>
            </g>
            <g transform="matrix(0.774612,0.0715621,-0.0371002,1.49414,288.402,-555.953)">
                <path d="M894.602,1009.95C894.602,1009.95 900.793,986.634 921.634,987.253C942.475,987.872 945.364,998.396 959.19,1007.06L894.602,1009.95Z" style="fill:rgb(118,118,118);"/>
            </g>
            <g transform="matrix(1.01378,0.0936577,-0.0485553,1.95547,56.0616,-1037.13)">
                <path d="M894.602,1009.95C894.602,1009.95 900.793,986.634 921.634,987.253C942.475,987.872 945.364,998.396 959.19,1007.06L894.602,1009.95Z" style="fill:rgb(222,222,222);"/>
            </g>
            <g transform="matrix(1.01378,0.0936577,-0.0485553,1.95547,106.325,-1037.13)">
                <path d="M894.602,1009.95C894.602,1009.95 900.793,986.634 921.634,987.253C942.475,987.872 945.364,998.396 959.19,1007.06L894.602,1009.95Z" style="fill:rgb(192,192,192);"/>
            </g>
            <g transform="matrix(1.04631,0,0,2.01821,-32.0831,-954.763)">
                <path d="M421.431,849.711L451.394,841.958C449.11,833.346 443.052,819.723 442.336,802.537C441.341,778.654 438.106,763.479 435.121,755.02C435.121,755.02 485.514,752.499 500.441,749.016C515.367,745.533 532.284,744.041 531.538,719.411C531.538,719.411 533.051,711.06 501.321,707.772C501.321,707.772 433.404,698.605 400.814,725.952C400.814,725.952 387.38,738.621 392.853,759.021C397.452,776.163 413.997,831.249 421.431,849.711Z" style="fill:rgb(207,212,218);"/>
            </g>
            <g transform="matrix(0.957253,0,0,2.01821,4.09283,-968.358)">
                <path d="M428.735,847.475C430.61,846.823 451.898,834.758 455.683,841.932C459.468,849.106 451.316,854.5 436.806,856.653C422.295,858.807 420.338,858.236 419.116,850.084C419.116,850.084 426.86,848.127 428.735,847.475Z" style="fill:rgb(73,80,87);"/>
            </g>
            <g transform="matrix(1.04631,0,0,2.01821,-32.0831,-954.763)">
                <path d="M533.103,725.952C533.103,725.952 546.537,659.227 524.893,595.342C524.893,595.342 516.186,575.242 500.264,581.959C484.342,588.676 474.64,611.067 473.396,643.408C472.152,675.749 467.425,704.11 473.645,710.081C479.864,716.052 533.103,725.952 533.103,725.952Z" style="fill:rgb(173,181,189);"/>
            </g>
            <g transform="matrix(1.04631,0,0,2.01821,-32.0831,-954.763)">
                <path d="M493.555,605.291C493.555,605.291 523.807,607.082 512.064,630.567C500.322,654.052 490.769,675.944 470.468,679.527C450.168,683.109 420.115,686.891 408.174,688.682C396.232,690.473 390.261,670.372 406.581,664.998C422.901,659.624 459.323,652.659 462.308,646.688C465.294,640.717 486.319,604.169 493.555,605.291Z" style="fill:rgb(207,212,218);"/>
            </g>
            <g transform="matrix(1.04631,0,0,2.01821,-32.0831,-954.763)">
                <path d="M396.594,672.484C396.594,672.484 374.377,668.385 375.571,682.243C376.765,696.101 380.878,700.745 386.318,698.622C391.758,696.499 386.584,691.457 384.992,686.681C383.399,681.904 406.472,692.253 396.594,672.484Z" style="fill:rgb(255,212,137);"/>
            </g>
            <g transform="matrix(1.04631,0,0,2.01821,-23.9835,-959.449)">
                <path d="M514.772,550.645C514.772,550.645 516.27,574.799 485.776,582.347C455.281,589.896 441.845,568.308 441.241,548.834C440.638,529.359 451.507,502.035 490.003,507.017C490.003,507.017 518.256,512.753 514.772,550.645Z" style="fill:rgb(255,212,137);"/>
            </g>
            <g transform="matrix(1.04631,0,0,2.01821,-26.1603,-956.319)">
                <path d="M501.966,577.414C501.966,577.414 519.527,568.634 515.569,537.593C511.612,506.552 493.556,504.697 480.818,503.089C468.08,501.481 442.11,510.509 439.513,520.279C436.916,530.049 433.453,532.151 450.643,532.646C467.833,533.141 475.253,535.367 478.963,529.183C478.963,529.183 487.002,559.526 497.637,553.815C497.637,553.815 491.839,578.062 501.966,577.414Z" style="fill:rgb(84,59,59);"/>
            </g>
            <g transform="matrix(1.04631,0,0,2.01821,-24.0677,-960.355)">
                <path d="M464.97,579.547C464.97,579.547 476.925,578.619 484.448,582.329C484.448,582.329 477.028,586.761 473.936,589.234C473.936,589.234 466.722,586.761 464.97,579.547" style="fill:rgb(84,59,59);"/>
            </g>
            <g transform="matrix(1.04631,0,0,2.01821,-26.8695,-957.737)">
                <path d="M491.208,551.255C491.208,551.255 486.014,539.877 496.341,538.703C496.341,538.703 510.439,539.543 498.876,556.696L491.208,551.255Z" style="fill:rgb(255,212,137);"/>
            </g>
            <g transform="matrix(1.04382,0,0,2.01821,-31,-950.726)">
                <path d="M522.069,567.884C522.069,567.884 548.91,548.053 535.981,509.264C523.051,470.475 443.093,470.737 435.405,522.456C435.405,522.456 461.038,530.704 482.508,529.988C482.508,529.988 485.231,585.742 522.069,567.884Z" style="fill: #26B6BD;"/>
            </g>
            <g transform="matrix(1.04631,0,0,2.01821,-32.0831,-950.726)">
                <path d="M484.414,528.038L471.265,558.909C471.265,558.909 437.027,571.046 430.157,566.81C423.286,562.573 422.027,525.816 439.432,517.113C456.837,508.41 484.414,528.038 484.414,528.038Z" style="fill:rgb(134,142,150);fill-opacity:0.5;"/>
            </g>
            <g transform="matrix(1.04631,0,0,2.01821,-1235.4,-1847.88)">
                <path d="M1776.94,1317.6L1784.18,1317.6L1799.26,1354.39L1791.9,1354.39C1791.9,1354.39 1781.4,1341.09 1776.94,1317.6Z" style="fill:rgb(73,80,87);"/>
            </g>
            <g transform="matrix(0.898795,0,0,1.73368,-956.104,-1462.51)">
                <path d="M1776.94,1317.6L1784.18,1317.6L1799.26,1354.39L1791.9,1354.39C1791.9,1354.39 1781.4,1341.09 1776.94,1317.6Z" style="fill:rgb(73,80,87);"/>
            </g>
            <g transform="matrix(0.751283,0,0,1.44914,-676.687,-1077.13)">
                <path d="M1776.94,1317.6L1784.18,1317.6L1799.26,1354.39L1791.9,1354.39C1791.9,1354.39 1781.4,1341.09 1776.94,1317.6Z" style="fill:rgb(73,80,87);"/>
            </g>
            <g transform="matrix(0.620923,0,0,1.19769,-430.338,-736.572)">
                <path d="M1776.94,1317.6L1784.18,1317.6L1799.26,1354.39L1791.9,1354.39C1791.9,1354.39 1781.4,1341.09 1776.94,1317.6Z" style="fill:rgb(73,80,87);"/>
            </g>
            <g transform="matrix(0.663936,0,0,1.28066,-344.574,-1124.71)">
                <path d="M1611.65,1515.67C1611.65,1515.67 1601.28,1508.36 1610.4,1497.28C1610.4,1497.28 1615.19,1491.22 1621.56,1496.41C1621.56,1496.41 1625.8,1490.28 1633.03,1495.31C1633.03,1495.31 1636.41,1497.28 1635.86,1500.97C1635.86,1500.97 1653.63,1496.7 1647.97,1519.52C1647.97,1519.52 1644.75,1527.33 1633.66,1526.78C1633.66,1526.78 1630.36,1531.97 1625.8,1530.63C1625.8,1530.63 1621.32,1529.76 1621.09,1526.07C1621.09,1526.07 1617.47,1527.17 1614.48,1523.79C1614.48,1523.79 1610.95,1520.28 1611.65,1515.67Z" style="fill:rgb(183,183,183);"/>
            </g>
            <g transform="matrix(0.865338,0,0,1.66914,-644.756,-1756.24)">
                <path d="M1611.65,1515.67C1611.65,1515.67 1601.28,1508.36 1610.4,1497.28C1610.4,1497.28 1615.19,1491.22 1621.56,1496.41C1621.56,1496.41 1625.8,1490.28 1633.03,1495.31C1633.03,1495.31 1636.41,1497.28 1635.86,1500.97C1635.86,1500.97 1653.63,1496.7 1647.97,1519.52C1647.97,1519.52 1644.75,1527.33 1633.66,1526.78C1633.66,1526.78 1630.36,1531.97 1625.8,1530.63C1625.8,1530.63 1621.32,1529.76 1621.09,1526.07C1621.09,1526.07 1617.47,1527.17 1614.48,1523.79C1614.48,1523.79 1610.95,1520.28 1611.65,1515.67Z" style="fill:rgb(210,210,210);"/>
            </g>
            <g transform="matrix(1.17769,0,0,2.27164,-1113.35,-2720.15)">
                <path d="M1611.65,1515.67C1611.65,1515.67 1601.28,1508.36 1610.4,1497.28C1610.4,1497.28 1615.19,1491.22 1621.56,1496.41C1621.56,1496.41 1625.8,1490.28 1633.03,1495.31C1633.03,1495.31 1636.41,1497.28 1635.86,1500.97C1635.86,1500.97 1653.63,1496.7 1647.97,1519.52C1647.97,1519.52 1644.75,1527.33 1633.66,1526.78C1633.66,1526.78 1630.36,1531.97 1625.8,1530.63C1625.8,1530.63 1621.32,1529.76 1621.09,1526.07C1621.09,1526.07 1617.47,1527.17 1614.48,1523.79C1614.48,1523.79 1610.95,1520.28 1611.65,1515.67Z" style="fill:rgb(224,224,224);"/>
            </g>
        </g>
    </g>
</svg>
