<svg width="392" height="253" viewBox="0 0 392 253" fill="none" xmlns="http://www.w3.org/2000/svg">
<g clip-path="url(#clip0)">
<path fill-rule="evenodd" clip-rule="evenodd" d="M328.329 51.4336C328.331 47.2679 324.95 43.8835 320.786 43.8817L86.954 43.7801C82.789 43.7783 79.4058 47.1598 79.404 51.3255L79.345 187.209C79.3432 191.375 82.7235 194.759 86.8885 194.761L320.721 194.862C324.885 194.864 328.268 191.483 328.27 187.317L328.329 51.4336Z" fill="#45D4AD"/>
<path fill-rule="evenodd" clip-rule="evenodd" d="M168.557 44.7554H85.9509L92.5595 28.8477H162.774L168.557 44.7554Z" fill="#45D4AD"/>
<path fill-rule="evenodd" clip-rule="evenodd" d="M161.697 43.7804H92.8115L98.3224 33.0361H156.874L161.697 43.7804Z" fill="#EBFFFA"/>
<path fill-rule="evenodd" clip-rule="evenodd" d="M388.127 86.9974C389.242 82.9847 386.89 78.819 382.878 77.7023L157.585 14.9941C153.572 13.8771 149.408 16.229 148.293 20.2417L111.903 151.136C110.787 155.149 113.14 159.314 117.152 160.431L342.445 223.14C346.457 224.256 350.621 221.905 351.737 217.892L388.127 86.9974Z" fill="currentColor"/>
<path fill-rule="evenodd" clip-rule="evenodd" d="M240.202 37.9386L160.607 15.8226L171.228 2.26782L238.883 21.0662L240.202 37.9386Z" fill="currentColor"/>
<path fill-rule="evenodd" clip-rule="evenodd" d="M233.853 35.1635L167.478 16.7215L175.661 7.84695L232.079 23.5225L233.853 35.1635Z" fill="#EBFFFA"/>
<path fill-rule="evenodd" clip-rule="evenodd" d="M252.413 106.177C252.414 102.011 249.034 98.6266 244.87 98.6248L11.0378 98.5233C6.87276 98.5215 3.4895 101.903 3.48769 106.069L3.42874 241.952C3.42693 246.118 6.80725 249.502 10.9723 249.504L244.804 249.605C248.969 249.607 252.352 246.226 252.354 242.06L252.413 106.177Z" fill="#D1F8EE"/>
<path fill-rule="evenodd" clip-rule="evenodd" d="M96.7636 98.5215H14.1575L20.766 82.6138H90.9804L96.7636 98.5215Z" fill="#D1F8EE"/>
<path fill-rule="evenodd" clip-rule="evenodd" d="M89.9038 97.5465H21.0183L26.5292 86.8022H85.0811L89.9038 97.5465Z" fill="#EBFFFA"/>
</g>
<defs>
<clipPath id="clip0">
<rect width="392" height="252.202" fill="white" transform="translate(0 0.730469)"/>
</clipPath>
</defs>
</svg>
