<svg width="542" height="321" viewBox="0 0 542 321" fill="none" xmlns="http://www.w3.org/2000/svg">
<path fill-rule="evenodd" clip-rule="evenodd" d="M109.699 68.0609C108.56 64.5391 109.597 60.6063 109.1 56.9758C108.834 55.0369 107.91 53.1391 106.649 51.6498C106.379 51.3301 106.067 51.0346 105.704 50.824C102.759 49.1169 99.6825 52.2394 98.0609 54.3739C97.6799 54.8756 97.3154 55.3899 96.9518 55.9042C96.2635 56.8787 95.3783 58.2637 95.4886 59.5284C95.6085 60.9023 96.9961 61.9362 97.9631 62.7422C99.6459 64.1455 101.58 65.2243 103.402 66.4296C104.323 67.0396 105.262 67.5814 106.054 68.3637" fill="#F3D595"/>
<path fill-rule="evenodd" clip-rule="evenodd" d="M27.4179 170.812C27.4179 169.029 27.4839 167.22 26.7576 165.546C26.5269 165.016 26.2192 164.335 25.7154 164.007C25.0999 163.605 24.3857 163.59 23.6787 163.628C22.0692 163.714 20.8261 164.29 19.3582 164.872C18.2384 165.316 16.8644 165.586 15.8217 164.791C14.2392 163.582 15.3112 161.531 16.4093 160.424C18.4802 158.336 21.2365 156.854 23.6826 155.269C24.6872 154.619 26.0631 153.565 27.3144 153.573C28.75 153.581 30.0634 154.706 30.9472 155.738C31.9412 156.899 32.8928 158.316 33.4905 159.725C34.0973 161.156 34.4301 162.679 34.841 164.172C35.1766 165.394 35.7411 166.973 35.4728 168.247C35.2888 169.119 34.5058 169.817 33.8474 170.352C33.4096 170.708 32.9593 171.055 32.4681 171.335C32.0471 171.575 31.5699 171.803 31.0902 171.891C29.7677 172.133 28.4688 171.509 27.4179 170.812Z" fill="#FFE1A1"/>
<path fill-rule="evenodd" clip-rule="evenodd" d="M49.3694 169.227C49.1038 167.81 48.8867 166.361 48.0595 165.14C47.7969 164.752 47.4506 164.258 47.0008 164.072C46.4513 163.846 45.8808 163.941 45.3237 164.077C44.0558 164.387 43.1525 165.032 42.0712 165.716C41.2464 166.238 40.1933 166.659 39.245 166.183C37.8058 165.46 38.3532 163.668 39.0621 162.623C40.399 160.652 42.3713 159.059 44.0816 157.431C44.7841 156.762 45.722 155.718 46.7188 155.536C47.8625 155.327 49.0751 156.024 49.9321 156.712C50.896 157.485 51.8642 158.468 52.5497 159.499C53.2458 160.545 53.7375 161.706 54.2869 162.832C54.7359 163.752 55.4203 164.923 55.3966 165.976C55.3802 166.698 54.861 167.37 54.4168 167.894C54.1215 168.243 53.8149 168.587 53.4658 168.884C53.1666 169.138 52.8207 169.39 52.4521 169.532C51.4359 169.924 50.3093 169.623 49.3694 169.227Z" fill="#FFE1A1"/>
<path fill-rule="evenodd" clip-rule="evenodd" d="M55.1355 149.227C55.1355 149.227 50.3391 167.128 48.8736 181.957C48.8736 181.957 40.7469 169.266 38.7482 161.117C38.7482 161.117 27.4241 166.461 24.626 171.403C24.626 171.403 34.3521 195.449 43.4116 201.861C43.4116 201.861 56.8673 210.411 68.5916 190.239C68.5916 190.239 76.0522 206.136 84.5791 204.934C84.5791 204.934 97.769 204.533 98.568 175.277C98.568 175.277 100.833 158.445 101.632 152.434C102.432 146.422 55.1355 149.227 55.1355 149.227Z" fill="#64A962"/>
<path fill-rule="evenodd" clip-rule="evenodd" d="M18.4467 130.295C15.4978 131.434 12.3731 131.884 9.35052 132.75C5.95662 133.723 2.06859 136 0.635803 139.377C-0.569665 142.217 -0.250838 146.401 3.2548 147.235C6.33613 147.969 9.86777 145.498 11.432 142.982C12.0239 142.03 12.3274 140.948 12.821 139.949C13.3768 138.824 14.1478 137.869 15.0851 137.041C16.4581 135.83 18.0166 134.921 19.5327 133.91C20.1506 133.498 21.1056 133.093 21.4384 132.38" fill="#FFE1A1"/>
<path fill-rule="evenodd" clip-rule="evenodd" d="M92.8943 91.6008C92.8943 91.6008 83.3965 95.906 71.1665 92.6444C71.1665 92.6444 54.643 97.6019 49.9588 106.865C49.9588 106.865 21.856 122.78 16.7817 126.694C16.7817 126.694 16.9123 132.564 16.9123 138.435C16.9123 138.435 44.4945 124.476 56.0738 119.258C56.0738 119.258 55.6837 141.957 53.2116 150.306C53.2116 150.306 62.1888 159.308 84.4372 158.395C84.4372 158.395 99.3994 156.177 102.782 154.481C102.782 154.481 105.384 132.956 104.474 115.344C104.474 115.344 112.15 101.777 124.77 91.6008C124.77 91.6008 134.268 85.2086 127.372 75.6852C127.372 75.6852 116.834 65.1182 112.54 62.1179C112.54 62.1179 102.782 65.901 102.002 68.5102C102.002 68.5102 112.15 76.99 116.053 80.6427C116.053 80.6427 108.377 90.5573 101.611 92.514C101.611 92.514 96.9273 90.9489 92.8943 91.6008Z" fill="#4C4F94"/>
<path fill-rule="evenodd" clip-rule="evenodd" d="M60.0353 68.9024C60.0353 68.9024 64.8379 86.5599 82.448 83.5789C100.058 80.5975 99.8292 66.2653 98.4571 56.2898C98.4571 56.2898 96.5134 42.8747 75.9299 46.4289C75.9299 46.4289 56.2614 51.3594 60.0353 68.9024Z" fill="#FFE1A1"/>
<path fill-rule="evenodd" clip-rule="evenodd" d="M58.7749 66.4782C58.7749 66.4782 72.3174 44.1577 98.9482 55.5471C98.9482 55.5471 98.1161 36.1314 72.5444 39.1128C72.5444 39.1128 51.0578 46.2198 58.7749 66.4782Z" fill="#3B7719"/>
<path fill-rule="evenodd" clip-rule="evenodd" d="M55.1277 177.323C55.1277 177.323 50.1513 169.794 46.833 168.393C46.833 168.393 49.3653 165.767 54.5166 161.827L55.1277 177.323Z" fill="#64A962"/>
<path fill-rule="evenodd" clip-rule="evenodd" d="M68.5981 190.25C70.3397 187.3 71.906 183.487 73.121 178.595C73.121 178.595 73.5346 178.582 74.2906 178.732C74.2906 178.732 72.5754 185.439 69.2221 191.46L68.9299 190.919L68.5981 190.25Z" fill="#135911"/>
<path fill-rule="evenodd" clip-rule="evenodd" d="M240.486 20.8976C240.486 20.8976 232.695 40.6758 239.775 54.6583C239.775 54.6583 246.461 66.7483 262.669 66.1393C262.669 66.1393 283.51 67.2806 289.714 51.5311C289.714 51.5311 307.131 7.95903 269.857 9.28519C269.857 9.28519 248.948 9.3877 240.486 20.8976Z" fill="#FFE1A1"/>
<path fill-rule="evenodd" clip-rule="evenodd" d="M266.93 3.66965C266.93 3.66965 250.157 2.504 241.265 14.0747C237.853 18.5142 237.508 24.8295 236.899 33.8055C236.899 33.8055 262.096 19.1937 293.798 31.7604C293.798 31.7604 300.429 4.17716 266.93 3.66965Z" fill="#7A3E3E"/>
<path fill-rule="evenodd" clip-rule="evenodd" d="M262.992 89.5378C263.399 88.0075 265.993 81.4772 265.281 75.0492C265.281 75.0492 254.545 74.7937 252.256 71.835C252.256 71.835 248.541 76.5283 248.694 79.1302C248.694 79.1302 262.585 91.0686 262.992 89.5378Z" fill="#FF7C7C"/>
<path fill-rule="evenodd" clip-rule="evenodd" d="M270.06 74.7114C270.06 74.7114 268.524 86.4214 270.936 89.2162C273.349 92.0111 286.678 76.7705 286.678 76.7705C286.678 76.7705 285.647 71.7531 284.23 70.4543C284.23 70.4543 277.693 75.9592 270.06 74.7114Z" fill="#FF7C7C"/>
<path fill-rule="evenodd" clip-rule="evenodd" d="M260.283 284.415C260.283 284.415 262.521 289.75 266.968 295.352C266.968 295.352 265.411 302.375 259.46 311.051C259.46 311.051 257.884 323.645 273.773 318.009C273.773 318.009 294.036 307.642 280.424 293.053C280.424 293.053 271.636 281.938 269.551 275.195L260.283 284.415Z" fill="#FFE1A1"/>
<path fill-rule="evenodd" clip-rule="evenodd" d="M307.085 256.273C307.085 256.273 299.93 281.683 306.787 286.764C313.644 291.846 335.008 289.056 339.28 280.287C339.28 280.287 340.474 270.722 329.446 271.917C329.446 271.917 319.606 272.017 322.19 259.163L307.085 256.273Z" fill="#FFE1A1"/>
<path fill-rule="evenodd" clip-rule="evenodd" d="M227.618 177.208C227.618 177.208 220.631 216.287 220.942 234.036C220.942 234.036 226.478 256.895 247.75 275.89C247.75 275.89 254.427 281.962 260.172 287.723C260.172 287.723 281.775 275.514 283.465 264.453C283.465 264.453 264.131 247.29 258.168 240.415C258.168 240.415 260.653 217.995 265.026 204.045C265.026 204.045 280.359 214.571 293.868 220.488C293.868 220.488 296.197 246.488 294.8 258.477C294.8 258.477 317.004 265.483 330.356 263.459C330.356 263.459 329.85 230.335 318.596 201.727C318.596 201.727 312.578 174.286 294.567 164.789C294.567 164.789 248.246 152.262 227.618 177.208Z" fill="#535353"/>
<path fill-rule="evenodd" clip-rule="evenodd" d="M285.64 74.649C285.64 74.649 269.243 96.9443 250.61 74.649C250.61 74.649 239.43 72.4068 226.138 80.0049C226.138 80.0049 215.331 81.6241 209.244 84.4887C209.244 84.4887 210.262 70.8915 210.198 68.7232C210.198 68.7232 190.546 69.2969 187.938 66.4275C187.938 66.4275 182.658 97.0766 189.614 103.056C189.614 103.056 195.205 108.66 216.446 107.539C216.446 107.539 226.798 106.175 225.287 116.139C225.287 116.139 220.193 162.276 218.252 179.013C218.252 179.013 240.378 191.469 297.054 180.57C297.054 180.57 311.417 180.181 315.881 180.57C315.881 167.531 304.041 131.916 304.818 108.173C304.818 108.173 327.529 111.287 338.394 104.086C341.308 100.972 344.414 76.6453 346.74 71.7795C342.083 69.4442 328.107 69.055 321.898 69.4442C321.898 69.4442 320.733 78.9807 318.404 83.6513C316.075 88.322 305.788 85.9867 302.488 81.5106C299.189 77.0345 295.576 72.8473 285.64 74.649Z" fill="#C25050"/>
<path fill-rule="evenodd" clip-rule="evenodd" d="M194.561 71.076C194.561 71.076 194.97 65.7639 195.576 63.2536C195.576 63.2536 188.311 54.3311 197.111 38.3741C197.111 38.3741 202.561 28.7481 209.905 30.6161C209.905 30.6161 208.466 36.1611 204.21 42.277C204.21 42.277 201.737 49.949 202.076 52.8784C202.076 52.8784 211.194 60.0234 199.781 76.4067L194.561 71.076Z" fill="#FFE1A1"/>
<path fill-rule="evenodd" clip-rule="evenodd" d="M327.904 74.1825C327.904 74.1825 328.846 68.7794 330.764 62.8067C330.764 62.8067 326.304 57.6047 331.264 49.8954C331.264 49.8954 332.699 41.6813 326.646 38.2434C326.646 38.2434 331.347 29.1601 338.822 34.487C338.822 34.487 351.924 45.5297 344.19 56.7598C344.19 56.7598 339.644 61.371 339.38 63.0898C339.115 64.8087 338.737 72.7414 338.737 72.7414L327.904 74.1825Z" fill="#FFE1A1"/>
<path fill-rule="evenodd" clip-rule="evenodd" d="M484.636 229.892C486.358 229.892 491.807 232.049 502.138 238.09C502.138 238.09 502.138 247.295 500.272 254.199C500.272 254.199 517.913 265.13 521.069 239.24C521.069 239.24 523.223 232.049 509.309 223.707L486.786 215.652C486.786 215.652 482.914 229.892 484.636 229.892Z" fill="#FFE1A1"/>
<path fill-rule="evenodd" clip-rule="evenodd" d="M510.376 214.106C510.376 214.106 517.524 213.555 525.09 217.14C525.09 217.14 526.054 226.79 525.637 235.063C525.637 235.063 540.49 244.025 542 215.899C542 215.899 541.865 206.248 534.712 204.731C534.712 204.731 524.539 202.939 517.663 201.284L510.376 214.106Z" fill="#FFE1A1"/>
<path fill-rule="evenodd" clip-rule="evenodd" d="M463.654 21.2536C463.654 21.2536 456.575 49.2782 479.677 46.9119C479.677 46.9119 503.902 41.0321 503.156 24.4664C503.156 24.4664 502.785 4.53782 487.879 3.79028C487.879 3.79028 469.617 5.33607 463.654 21.2536Z" fill="#FFE1A1"/>
<path fill-rule="evenodd" clip-rule="evenodd" d="M459.021 23.0056C459.021 23.0056 490.899 19.4978 499.327 9.69334C499.327 9.69334 491.535 -4.89479 471.505 1.72151C471.505 1.72151 458.939 9.0554 456.238 11.3671C456.238 11.3671 453.854 18.3818 455.525 20.2951C455.525 20.2951 457.273 22.4474 459.021 23.0056Z" fill="#968050"/>
<path fill-rule="evenodd" clip-rule="evenodd" d="M402.587 69.5597C402.587 69.5597 402.587 61.9783 391.923 58.8711C391.923 58.8711 378.983 54.5333 394.531 39.9767C394.531 39.9767 400.326 35.4424 404.926 40.2152C404.926 40.2152 409.688 44.431 404.529 52.5446C404.529 52.5446 406.038 58.4311 408.494 62.4083L402.587 69.5597Z" fill="#FFE1A1"/>
<path fill-rule="evenodd" clip-rule="evenodd" d="M443.366 55.3968C443.366 55.3968 445.217 51.2003 440.579 47.6555C440.579 47.6555 433.212 49.9574 432.411 38.8795C432.411 38.8795 431.749 27.4646 447.416 28.8188C447.416 28.8188 457.765 32.7164 450.158 44.247C450.158 44.247 448.313 48.5056 450.473 53.4509L443.366 55.3968Z" fill="#FFE1A1"/>
<path fill-rule="evenodd" clip-rule="evenodd" d="M470.96 85.0083C470.96 85.0083 450.949 92.1828 444.592 92.3156C444.592 92.3156 434.257 68.6667 436.906 54.4509C436.906 54.4509 443.797 49.4026 456.647 49.2693C456.647 49.2693 455.722 68.0022 458.236 71.7225L466.934 69.0607L470.96 85.0083Z" fill="#C08F26"/>
<path fill-rule="evenodd" clip-rule="evenodd" d="M522.971 130.838C522.971 130.838 527.735 154.71 499.368 193.322C499.368 193.322 509.929 197.889 523.179 195.398C523.179 195.398 510.507 225.989 510.093 233.462C510.093 233.462 477.175 214.364 471.377 204.814C465.583 195.265 485.873 154.577 485.873 154.577C485.873 154.577 506.038 121.421 522.971 130.838Z" fill="#DBB252"/>
<path fill-rule="evenodd" clip-rule="evenodd" d="M493.157 223.011L495.055 224.121C497.718 219.15 500.333 213.19 501.518 207.466C501.518 207.466 489.593 206.303 473.69 193.349C473.69 193.349 474.572 191.074 489.81 167.425C489.81 167.425 492.459 164.715 496.312 160.727L495.445 160.511L494.915 160.394C490.051 165.447 486.497 169.086 486.497 169.086C471.258 192.735 470.382 195.01 470.382 195.01C486.28 207.963 498.204 209.126 498.204 209.126C497.236 213.822 495.3 218.676 493.157 223.011Z" fill="#9F751D"/>
<path fill-rule="evenodd" clip-rule="evenodd" d="M493.168 223.019L493.154 223.011L493.491 222.33L493.168 223.019Z" fill="#7C6122"/>
<path fill-rule="evenodd" clip-rule="evenodd" d="M494.719 219.678L494.382 220.405L495.234 218.399L494.719 219.678Z" fill="#7C6122"/>
<path fill-rule="evenodd" clip-rule="evenodd" d="M496.12 216.206L496.014 216.472L496.202 215.966L496.12 216.206Z" fill="#7C6122"/>
<path fill-rule="evenodd" clip-rule="evenodd" d="M497.31 212.669L497.248 212.849L497.58 211.68L497.31 212.669Z" fill="#7C6122"/>
<path fill-rule="evenodd" clip-rule="evenodd" d="M497.758 211.038C497.84 210.719 497.922 210.4 497.994 210.081C498.071 209.762 498.139 209.444 498.207 209.127L497.758 211.038Z" fill="#7C6122"/>
<path fill-rule="evenodd" clip-rule="evenodd" d="M496.091 208.743L496.727 208.867L496.091 208.743L495.099 208.477L496.091 208.743Z" fill="#7C6122"/>
<path fill-rule="evenodd" clip-rule="evenodd" d="M478.749 201.056L479.168 201.311L481.937 202.952L482.611 203.326L485.462 204.816C484.547 204.371 483.594 203.879 482.611 203.326L482.289 203.158L481.937 202.952L481.036 202.447L479.168 201.311L478.855 201.124L478.749 201.056C477.896 200.52 477.029 199.947 476.143 199.337L478.749 201.056Z" fill="#7C6122"/>
<path fill-rule="evenodd" clip-rule="evenodd" d="M494.055 221.169L493.491 222.329L494.382 220.406L494.055 221.169Z" fill="#7C6122"/>
<path fill-rule="evenodd" clip-rule="evenodd" d="M495.731 217.234L495.235 218.399L496.015 216.473L495.731 217.234Z" fill="#7C6122"/>
<path fill-rule="evenodd" clip-rule="evenodd" d="M497.248 212.849C496.934 213.892 496.583 214.934 496.202 215.967L497.248 212.849Z" fill="#7C6122"/>
<path fill-rule="evenodd" clip-rule="evenodd" d="M497.729 211.154L497.58 211.68L497.758 211.038L497.729 211.154Z" fill="#7C6122"/>
<path fill-rule="evenodd" clip-rule="evenodd" d="M497.661 209.052L498.206 209.127C498.023 209.102 497.844 209.077 497.661 209.052L496.727 208.867L497.661 209.052Z" fill="#7C6122"/>
<path fill-rule="evenodd" clip-rule="evenodd" d="M488.299 206.131C491.102 207.331 493.409 208.06 495.099 208.477C493.004 207.942 489.941 206.954 486.17 205.169L488.299 206.131Z" fill="#7C6122"/>
<path fill-rule="evenodd" clip-rule="evenodd" d="M451.663 133.896C451.663 133.896 425.83 193.516 425.993 205.971C425.993 205.971 442.224 235.366 484.461 237.691C484.461 237.691 495.389 222.745 498.206 209.127C498.206 209.127 486.281 207.964 470.379 195.01C470.379 195.01 471.26 192.735 486.498 169.087C486.498 169.087 524.478 130.222 522.325 130.388C520.167 130.554 483.03 112.493 451.663 133.896Z" fill="#DBB252"/>
<path fill-rule="evenodd" clip-rule="evenodd" d="M507.413 45.8047C507.413 45.8047 528.036 66.0771 528.036 133.787C528.036 133.787 518.331 141.896 471.427 140.274C471.427 140.274 452.177 139.109 447.872 137.282C447.872 137.282 445.887 135.787 457.48 121.339C457.48 121.339 462.777 95.9299 460.793 84.1388C460.793 84.1388 442.906 94.7671 424.355 96.9262C424.355 96.9262 404.811 86.2974 397.356 73.51C397.356 73.51 402.822 60.8883 415.079 51.7546C415.079 51.7546 423.859 69.6902 430.153 74.1745C430.153 74.1745 448.204 73.6761 452.346 69.5241C452.346 69.5241 461.949 55.5744 484.975 52.5847C484.975 52.5847 501.037 46.1649 507.413 45.8047Z" fill="#FFC13D"/>
<path fill-rule="evenodd" clip-rule="evenodd" d="M152.329 276.556C149.535 274.97 146.75 273.288 144.845 270.661C141.814 266.482 140.346 261.84 134.691 260.69C126.338 258.99 117.906 264.242 110.456 267.197C108.484 267.979 106.518 268.762 104.519 269.473C104.347 269.535 102.756 269.918 102.711 270.094C102.652 270.327 105.188 270.782 105.453 270.807C108.167 271.068 111.295 270.055 113.666 271.851C115.888 273.534 117.13 276.337 118.843 278.495C121.985 282.455 126.883 285.426 131.976 285.765C136.416 286.061 139.283 283.243 142.586 280.711C145.383 278.568 148.727 276.694 152.329 276.556Z" fill="#45AD41"/>
<path fill-rule="evenodd" clip-rule="evenodd" d="M151.958 276.3C149.751 275.67 147.493 275.78 145.234 275.944C143.074 276.101 140.913 276.306 138.799 275.875C137.097 275.528 135.654 274.674 134.267 273.709C132.813 272.697 131.42 271.564 129.883 270.706C129.651 270.576 129.357 270.66 129.228 270.893C129.098 271.126 129.182 271.42 129.414 271.55C130.924 272.392 132.29 273.509 133.718 274.502C135.212 275.542 136.773 276.447 138.607 276.822C140.807 277.271 143.055 277.07 145.303 276.907C147.45 276.752 149.597 276.63 151.694 277.229C151.95 277.302 152.217 277.153 152.29 276.896C152.362 276.64 152.214 276.373 151.958 276.3Z" fill="#447042"/>
<path fill-rule="evenodd" clip-rule="evenodd" d="M148.233 270.546C156.285 265.945 166.21 265.065 171.479 256.501C172.677 254.555 173.618 252.41 174.287 250.223C175.139 247.436 175.584 244.535 175.883 241.642C176.18 238.781 176.198 235.89 177.102 233.132C177.382 232.279 177.699 231.438 178.055 230.614C178.171 230.347 178.291 230.08 178.429 229.823C178.518 229.657 178.886 229.369 178.703 229.33C178.077 229.199 176.008 231.304 175.553 231.687C172.567 234.196 169.95 236.894 167.376 239.807C166.028 241.332 164.561 242.768 163.028 244.106C157.815 248.656 151.593 252.217 148.257 258.519C147.126 260.655 146.028 263.029 146.203 265.504C146.338 267.416 147.171 269.191 148.03 270.863" fill="#45AD41"/>
<path fill-rule="evenodd" clip-rule="evenodd" d="M148.518 270.632C150.059 265.614 152.353 261.202 156.31 257.72C160.724 253.835 166.358 251.531 170.089 246.857C170.255 246.649 170.221 246.344 170.014 246.178C169.807 246.012 169.503 246.045 169.337 246.253C165.641 250.883 160.046 253.146 155.674 256.994C151.579 260.598 149.192 265.155 147.597 270.347C147.519 270.602 147.662 270.873 147.916 270.951C148.17 271.03 148.44 270.886 148.518 270.632Z" fill="#447042"/>
<path fill-rule="evenodd" clip-rule="evenodd" d="M151.319 265.1C150.949 252.299 158.349 239.478 149.899 227.834C148.57 226.002 146.957 224.339 145.167 222.957C142.548 220.936 137.454 218.588 134.009 219.219C133.864 219.245 134.266 219.367 134.392 219.446C134.655 219.608 134.918 219.773 135.164 219.96C135.937 220.545 136.652 221.179 137.305 221.898C139.159 223.94 140.191 226.581 140.133 229.341C140.028 234.315 137.377 238.819 135.678 243.352C134.292 247.051 133.589 250.706 136.063 254.128C138.446 257.425 142.512 259.263 146.074 260.949C148.148 261.931 149.773 263.329 151.319 265.1Z" fill="#45AD41"/>
<path fill-rule="evenodd" clip-rule="evenodd" d="M151.251 263.746C149.932 261.245 148.596 258.777 146.912 256.497C144.854 253.711 142.532 251.363 142.013 247.757C141.566 244.64 142.51 241.66 143.699 238.815C143.801 238.569 143.686 238.286 143.44 238.183C143.195 238.08 142.913 238.196 142.81 238.442C141.554 241.448 140.587 244.602 141.06 247.894C141.603 251.67 143.984 254.156 146.138 257.071C147.793 259.312 149.103 261.74 150.399 264.198C150.524 264.433 150.815 264.524 151.05 264.399C151.285 264.274 151.375 263.982 151.251 263.746Z" fill="#447042"/>
<path fill-rule="evenodd" clip-rule="evenodd" d="M389.394 281.401C396.001 273.706 402.219 265.956 410.305 259.736C414.254 256.699 418.146 253.955 423.193 253.253C428.399 252.529 433.61 253.223 438.807 253.622C440.56 253.756 442.318 253.888 444.076 253.869C444.668 253.863 445.265 253.838 445.858 253.807C446.176 253.789 446.985 253.461 446.806 253.729C446.195 254.675 444.466 255.449 443.58 256.157C441.35 257.949 439.255 259.956 437.29 262.042C434.988 264.491 432.849 267.119 430.86 269.83C426.579 275.676 422.085 282.477 414.317 283.669C406.212 284.912 397.557 280.414 389.394 281.401Z" fill="#60BD5D"/>
<path fill-rule="evenodd" clip-rule="evenodd" d="M390.521 281.51C395.948 277.085 401.66 272.718 407.858 269.43C414.399 265.962 421.608 263.576 428.649 261.372C428.905 261.293 429.044 261.021 428.967 260.767C428.885 260.513 428.616 260.371 428.365 260.45C421.266 262.672 413.999 265.081 407.41 268.577C401.154 271.894 395.39 276.296 389.914 280.761C389.707 280.929 389.673 281.233 389.841 281.44C390.01 281.647 390.313 281.678 390.521 281.51Z" fill="#447042"/>
<path fill-rule="evenodd" clip-rule="evenodd" d="M405.142 260.399C407.57 257.572 410.141 254.966 413.094 252.681C417.616 249.186 423.646 245.647 424.373 239.262C425.095 232.917 419.619 227.897 417.293 222.478C416.041 219.564 415.314 216.604 415.964 213.432C416.287 211.86 417.028 210.463 417.452 208.949C417.529 208.668 416.879 209.032 416.59 209.08C415.93 209.191 415.271 209.319 414.62 209.47C412.578 209.941 410.551 210.618 408.615 211.423C402.638 213.905 396.165 219.019 395.688 225.982C394.841 238.437 405.306 248.03 405.142 260.399Z" fill="#60BD5D"/>
<path fill-rule="evenodd" clip-rule="evenodd" d="M405.648 260.071C408.119 255.989 410.233 252.029 411.856 247.512C412.684 245.211 413.58 242.677 413.479 240.195C413.392 238.02 412.641 235.992 411.914 233.964C411.225 232.037 410.551 230.111 410.585 228.038C410.59 227.771 410.378 227.552 410.113 227.547C409.843 227.543 409.626 227.756 409.621 228.023C409.588 230.214 410.276 232.254 411.009 234.29C411.702 236.226 412.434 238.158 412.516 240.235C412.612 242.594 411.741 244.997 410.951 247.184C409.347 251.64 407.262 255.544 404.825 259.57C404.69 259.798 404.762 260.095 404.988 260.234C405.215 260.372 405.513 260.299 405.648 260.071Z" fill="#447042"/>
<path fill-rule="evenodd" clip-rule="evenodd" d="M391.045 266.429C395.621 263.989 401.068 260.369 402.826 255.217C404.174 251.25 402.97 246.757 401.121 243.162C397.441 236.012 390.573 230.53 382.468 229.57C375.48 228.742 369.272 232.163 364.128 236.518C361.287 238.923 358.532 241.373 355.541 243.603C354.809 244.149 354.067 244.683 353.321 245.21C353.258 245.253 352.627 245.641 352.637 245.688C352.652 245.77 353.668 245.783 353.822 245.791C355.093 245.858 356.355 245.767 357.607 245.555C363.107 244.627 368.41 242.752 373.915 241.858C378.374 241.134 384.606 241.199 387.872 244.912C389.182 246.403 389.577 248.828 389.822 250.724C390.183 253.502 390.169 256.355 390.236 259.154C390.299 261.459 391.339 264.133 391.045 266.429Z" fill="#60BD5D"/>
<path fill-rule="evenodd" clip-rule="evenodd" d="M391.99 265.987C393.863 262.085 396.589 257.837 397.205 253.482C397.557 250.984 397.114 248.477 396.353 246.094C395.92 244.725 395.371 243.413 394.624 242.186C393.646 240.592 392.317 239.333 390.92 238.117C390.718 237.942 390.415 237.964 390.241 238.165C390.068 238.366 390.087 238.671 390.29 238.846C391.609 239.997 392.881 241.181 393.8 242.691C394.508 243.851 395.024 245.093 395.438 246.388C396.151 248.633 396.584 250.993 396.252 253.347C395.65 257.607 392.953 261.751 391.123 265.568C391.007 265.809 391.108 266.097 391.349 266.213C391.59 266.329 391.879 266.227 391.99 265.987Z" fill="#447042"/>
</svg>
