<svg width="24" height="24" viewBox="0 0 24 24" fill="none" xmlns="http://www.w3.org/2000/svg">
<path d="M9.5625 11.2491H3.1875C2.73995 11.2491 2.31072 11.0713 1.99426 10.7548C1.67779 10.4384 1.5 10.0091 1.5 9.56159V3.18659C1.5 2.73904 1.67779 2.30982 1.99426 1.99335C2.31072 1.67688 2.73995 1.49909 3.1875 1.49909H9.5625C10.01 1.49909 10.4393 1.67688 10.7557 1.99335C11.0722 2.30982 11.25 2.73904 11.25 3.18659V9.56159C11.25 10.0091 11.0722 10.4384 10.7557 10.7548C10.4393 11.0713 10.01 11.2491 9.5625 11.2491Z" fill="currentColor"/>
<path d="M20.8125 11.2491H14.4375C13.9899 11.2491 13.5607 11.0713 13.2443 10.7548C12.9278 10.4384 12.75 10.0091 12.75 9.56159V3.18659C12.75 2.73904 12.9278 2.30982 13.2443 1.99335C13.5607 1.67688 13.9899 1.49909 14.4375 1.49909H20.8125C21.26 1.49909 21.6893 1.67688 22.0057 1.99335C22.3222 2.30982 22.5 2.73904 22.5 3.18659V9.56159C22.5 10.0091 22.3222 10.4384 22.0057 10.7548C21.6893 11.0713 21.26 11.2491 20.8125 11.2491Z" fill="currentColor"/>
<path d="M9.5625 22.5004H3.1875C2.73995 22.5004 2.31072 22.3226 1.99426 22.0061C1.67779 21.6897 1.5 21.2605 1.5 20.8129V14.4379C1.5 13.9904 1.67779 13.5611 1.99426 13.2447C2.31072 12.9282 2.73995 12.7504 3.1875 12.7504H9.5625C10.01 12.7504 10.4393 12.9282 10.7557 13.2447C11.0722 13.5611 11.25 13.9904 11.25 14.4379V20.8129C11.25 21.2605 11.0722 21.6897 10.7557 22.0061C10.4393 22.3226 10.01 22.5004 9.5625 22.5004Z" fill="currentColor"/>
<path d="M20.8125 22.5004H14.4375C13.9899 22.5004 13.5607 22.3226 13.2443 22.0061C12.9278 21.6897 12.75 21.2605 12.75 20.8129V14.4379C12.75 13.9904 12.9278 13.5611 13.2443 13.2447C13.5607 12.9282 13.9899 12.7504 14.4375 12.7504H20.8125C21.26 12.7504 21.6893 12.9282 22.0057 13.2447C22.3222 13.5611 22.5 13.9904 22.5 14.4379V20.8129C22.5 21.2605 22.3222 21.6897 22.0057 22.0061C21.6893 22.3226 21.26 22.5004 20.8125 22.5004Z" fill="currentColor"/>
</svg>
